HIERARCHY
ROOT Hips
{
	OFFSET 0.000000 0.000000 0.000000
	CHANNELS 6 Xposition Yposition Zposition Zrotation Yrotation Xrotation 
	JOINT LHipJoint
	{
		OFFSET 0.000000 0.000000 0.000000
		CHANNELS 3 Zrotation Yrotation Xrotation
		JOINT LeftUpLeg
		{
			OFFSET 1.363060 -1.794630 0.839290
			CHANNELS 3 Zrotation Yrotation Xrotation
			JOINT LeftLeg
			{
				OFFSET 2.448110 -6.726130 0.000000
				CHANNELS 3 Zrotation Yrotation Xrotation
				JOINT LeftFoot
				{
					OFFSET 2.562200 -7.039590 0.000000
					CHANNELS 3 Zrotation Yrotation Xrotation
					JOINT LeftToeBase
					{
						OFFSET 0.157640 -0.433110 2.322550
						CHANNELS 3 Zrotation Yrotation Xrotation
						End Site
						{
							OFFSET 0.000000 0.000000 0.000000
						}
					}
				}
			}
		}
	}
	JOINT RHipJoint
	{
		OFFSET 0.000000 0.000000 0.000000
		CHANNELS 3 Zrotation Yrotation Xrotation
		JOINT RightUpLeg
		{
			OFFSET -1.305520 -1.794630 0.839290
			CHANNELS 3 Zrotation Yrotation Xrotation
			JOINT RightLeg
			{
				OFFSET -2.542530 -6.985550 0.000000
				CHANNELS 3 Zrotation Yrotation Xrotation
				JOINT RightFoot
				{
					OFFSET -2.568260 -7.056230 0.000000
					CHANNELS 3 Zrotation Yrotation Xrotation
					JOINT RightToeBase
					{
						OFFSET -0.164730 -0.452590 2.363150
						CHANNELS 3 Zrotation Yrotation Xrotation
						End Site
						{
							OFFSET 0.000000 0.000000 0.000000
						}
					}
				}
			}
		}
	}
}
MOTION
Frames: 33
Frame Time: 0.008333
2.486214 16.753202 1.320308 -151.895460 -89.569939 156.138419 -10.062562 3.202106 3.696364 -5.060523 2.687322 -14.850766 -1.309136 0.637211 28.880382 2.956673 15.872282 -16.387976 -2.554000 -0.000000 -45.756499 11.097501 -1.329963 0.734357 -1.959274 -14.014533 -12.623424 1.002925 -0.672855 24.813461 -1.781067 -8.530807 -7.175717 -0.357500 0.000000 -72.081600
2.470403 16.753934 1.331783 2.523198 -88.203440 1.942888 -10.556930 3.276705 4.385054 -4.587399 0.124662 -15.703461 -1.266675 0.792090 29.493423 2.940100 15.679981 -16.546393 -2.535699 -0.000000 -45.739500 10.535456 -1.248956 0.254339 -1.607830 -15.951051 -11.977772 1.012139 -0.504499 24.204080 -1.887385 -9.326276 -6.851945 -0.451700 0.000000 -72.251100
2.456071 16.758460 1.335735 -0.094116 -86.225584 4.704458 -10.572129 3.257251 4.764261 -4.229577 -1.613528 -16.063957 -1.225919 0.812666 29.614792 2.897420 15.342961 -16.513861 -2.465601 -0.000000 -45.781600 10.464404 -1.274710 0.028194 -1.365846 -16.993435 -11.401613 0.999615 -0.455033 23.707748 -2.034840 -10.284642 -6.574023 -0.560000 -0.000000 -72.352300
2.440721 16.766836 1.338568 -1.275087 -84.154524 6.031200 -10.537482 3.252585 5.146500 -3.834290 -3.341290 -16.394357 -1.192644 0.824709 29.587963 2.836241 14.915734 -16.383926 -2.357901 -0.000000 -45.886400 10.438400 -1.303477 -0.193088 -1.123700 -18.063193 -10.765092 0.985654 -0.400669 23.095620 -2.176742 -11.244331 -6.191050 -0.702300 -0.000000 -72.476600
2.423935 16.779313 1.340197 -1.861224 -82.016874 6.770365 -10.477314 3.257891 5.529432 -3.413371 -5.026951 -16.698048 -1.166817 0.826278 29.400883 2.755045 14.395038 -16.147254 -2.212900 0.000000 -46.063700 10.434437 -1.341901 -0.404321 -0.888282 -19.141929 -10.083288 0.971985 -0.341904 22.369247 -2.311091 -12.194684 -5.700002 -0.883700 -0.000000 -72.610800
2.405511 16.796087 1.340565 -2.145589 -79.832130 7.219516 -10.400083 3.269538 5.909785 -2.975320 -6.650502 -16.974086 -1.147544 0.814802 29.042197 2.654593 13.787384 -15.796249 -2.033701 0.000000 -46.315401 10.445129 -1.394617 -0.599833 -0.661198 -20.212418 -9.369951 0.960279 -0.279969 21.529889 -2.436101 -13.126361 -5.099188 -1.109100 -0.000000 -72.743100
2.385628 16.817199 1.339454 -2.224901 -77.616174 7.471981 -10.306404 3.284504 6.282684 -2.538241 -8.209411 -17.201635 -1.133896 0.787829 28.493759 2.538701 13.116722 -15.323762 -1.826400 0.000000 -46.636901 10.471372 -1.462541 -0.778798 -0.457927 -21.268326 -8.628804 0.951665 -0.217222 20.582741 -2.548454 -14.021357 -4.388959 -1.380600 -0.000001 -72.873300
2.363621 16.842576 1.338245 -2.280645 -75.370766 7.737830 -10.207615 3.301089 6.658002 -2.066946 -9.693689 -17.442562 -1.122429 0.745276 27.786902 2.407267 12.376295 -14.739554 -1.597400 -0.000000 -47.015501 10.500851 -1.555622 -0.925893 -0.220540 -22.276124 -7.899735 0.949632 -0.150717 19.520307 -2.652109 -14.901967 -3.569049 -1.705400 -0.000000 -72.968200
2.340815 16.871894 1.336057 -2.227980 -73.106544 7.905093 -10.092866 3.317114 7.026472 -1.607824 -11.140375 -17.623018 -1.113225 0.685787 26.885544 2.269866 11.627123 -14.034593 -1.356600 -0.000000 -47.434500 10.547106 -1.665983 -1.054148 -0.009602 -23.257167 -7.157246 0.953120 -0.085917 18.361784 -2.739901 -15.728345 -2.643830 -2.079300 0.000000 -73.053700
2.317432 16.904622 1.333832 -2.142039 -70.820822 8.059973 -9.966092 3.332374 7.395188 -1.142620 -12.569395 -17.769059 -1.104115 0.611318 25.814958 2.130066 10.887430 -13.220196 -1.111800 0.000001 -47.878400 10.605869 -1.796545 -1.159781 0.199694 -24.200673 -6.417320 0.963601 -0.021866 17.111499 -2.813081 -16.507684 -1.615407 -2.504000 0.000000 -73.142500
2.294706 16.940057 1.331699 -2.026146 -68.515994 8.192646 -9.824780 3.346817 7.765261 -0.677532 -14.016282 -17.863440 -1.094779 0.524440 24.585440 1.994024 10.195244 -12.305090 -0.870400 -0.000000 -48.324600 10.680253 -1.943737 -1.249131 0.392075 -25.114029 -5.673017 0.980513 0.039439 15.790104 -2.869419 -17.225381 -0.493381 -2.973500 -0.000001 -73.225200
2.273982 16.977252 1.329758 -1.891255 -66.197091 8.298779 -9.668029 3.361442 8.138381 -0.212999 -15.512233 -17.895932 -1.085555 0.429310 23.221318 1.866970 9.583482 -11.303890 -0.637400 0.000000 -48.755000 10.771360 -2.103626 -1.328845 0.554999 -26.005011 -4.916963 1.002606 0.096367 14.422495 -2.907454 -17.869950 0.711447 -3.479800 0.000001 -73.329700
2.256590 17.015178 1.327847 -1.740633 -63.878066 8.362999 -9.495708 3.377777 8.514779 0.248138 -17.080205 -17.854580 -1.077858 0.330818 21.754912 1.753231 9.080036 -10.235629 -0.415400 -0.000000 -49.152700 10.879329 -2.271542 -1.406325 0.670353 -26.882266 -4.138111 1.028022 0.146934 13.042053 -2.925556 -18.424925 1.980067 -4.008300 0.000000 -73.459500
2.244107 17.052733 1.325484 -1.578457 -61.582515 8.363488 -9.309835 3.396813 8.891865 0.699430 -18.728014 -17.726042 -1.073746 0.234380 20.227438 1.655977 8.705484 -9.122890 -0.204400 0.000001 -49.503700 11.002111 -2.442324 -1.489003 0.716202 -27.752701 -3.324515 1.054335 0.188710 11.688183 -2.922476 -18.872240 3.288849 -4.539900 -0.000000 -73.618900
2.237621 17.088925 1.321893 -1.403446 -59.344802 8.277446 -9.115344 3.418686 9.264107 1.130474 -20.442026 -17.502307 -1.075657 0.145083 18.689896 1.576651 8.467344 -7.993573 -0.002899 -0.000000 -49.798400 11.134741 -2.611528 -1.582285 0.672589 -28.617676 -2.467111 1.079248 0.219402 10.403317 -2.897884 -19.193663 4.605415 -5.050000 -0.000001 -73.784100
2.238120 17.122851 1.316049 -1.214718 -57.207910 8.083250 -8.920678 3.440601 9.620269 1.522881 -22.186124 -17.176951 -1.085726 0.067212 17.196629 1.515103 8.361053 -6.876758 0.191100 -0.000000 -50.038201 11.269349 -2.774738 -1.691186 0.521106 -29.471578 -1.560080 1.100257 0.236546 9.224927 -2.853313 -19.379882 5.902282 -5.516900 -0.000001 -74.017600
2.245986 17.153868 1.306920 -1.011437 -55.219225 7.773831 -8.738194 3.457405 9.944653 1.856022 -23.897975 -16.757317 -1.104993 0.003823 15.808636 1.468754 8.363060 -5.804162 0.378000 0.000000 -50.226900 11.394795 -2.928452 -1.817815 0.257530 -30.297181 -0.610459 1.116300 0.238450 8.190044 -2.792017 -19.425504 7.136084 -5.915599 -0.000000 -74.234100
2.261125 17.181604 1.293349 -0.785476 -53.425767 7.344120 -8.580793 3.460519 10.214991 2.098516 -25.501982 -16.244871 -1.133654 -0.044115 14.572830 1.434271 8.445001 -4.800504 0.556800 0.000000 -50.383801 11.501229 -3.068215 -1.966040 -0.121209 -31.073822 0.371370 1.125949 0.223437 7.319240 -2.719349 -19.341409 8.281810 -6.234200 -0.000001 -74.516201
2.282667 17.205986 1.274512 -0.538102 -51.867283 6.811913 -8.459833 3.441698 10.409841 2.226063 -26.911317 -15.654807 -1.170257 -0.077597 13.529204 1.406611 8.566628 -3.885670 0.723900 0.000000 -50.531100 11.581295 -3.191285 -2.134664 -0.596539 -31.774270 1.357505 1.129683 0.191260 6.629009 -2.641705 -19.144238 9.300440 -6.461600 0.000000 -74.768000
2.309303 17.227139 1.249962 -0.275121 -50.576244 6.200264 -8.381218 3.395480 10.511814 2.218933 -28.043877 -14.996931 -1.212628 -0.099668 12.693879 1.380826 8.690892 -3.067941 0.875400 -0.000000 -50.698300 11.634210 -3.296397 -2.318610 -1.143630 -32.375748 2.315828 1.127911 0.142816 6.118621 -2.565886 -18.863841 10.171597 -6.601000 0.000001 -75.012400
2.339413 17.245448 1.219725 -0.011603 -49.575520 5.537436 -8.345137 3.322153 10.512972 2.072079 -28.828762 -14.283404 -1.257892 -0.114484 12.063930 1.352133 8.784002 -2.346050 1.007500 -0.000000 -50.914100 11.664617 -3.385297 -2.506601 -1.727592 -32.863897 3.208970 1.121951 0.080503 5.779687 -2.497486 -18.532157 10.878460 -6.660700 0.000000 -75.222400
2.370865 17.261329 1.184323 0.238928 -48.876890 4.851167 -8.347582 3.227660 10.415465 1.797784 -29.216197 -13.529596 -1.302869 -0.126637 11.617367 1.316405 8.818596 -1.710174 1.117600 0.000001 -51.202100 11.680220 -3.462368 -2.683567 -2.309823 -33.234554 3.999955 1.113471 0.008079 5.593429 -2.440929 -18.185008 11.416983 -6.656800 0.000000 -75.415100
2.401863 17.275272 1.144673 0.462709 -48.478270 4.165569 -8.383676 3.120709 10.228454 1.424539 -29.183782 -12.753668 -1.344140 -0.139941 11.318162 1.270873 8.777017 -1.145433 1.204600 -0.000000 -51.573200 11.687371 -3.532938 -2.836501 -2.853687 -33.496142 4.659671 1.104664 -0.070169 5.533502 -2.398823 -17.855580 11.794984 -6.608600 -0.000000 -75.623200
2.430635 17.287693 1.101904 0.651847 -48.359101 3.502334 -8.448272 3.010461 9.966594 0.992714 -28.740074 -11.978997 -1.378658 -0.157354 11.123077 1.214116 8.650242 -0.635260 1.268800 -0.000000 -52.030200 11.689903 -3.602050 -2.956686 -3.328050 -33.668396 5.164999 1.098875 -0.150152 5.580479 -2.371407 -17.562760 12.011844 -6.527401 0.000000 -75.751800
2.455719 17.298974 1.057327 0.805740 -48.483528 2.881357 -8.537091 2.904444 9.647498 0.548036 -27.929459 -11.228820 -1.404072 -0.180541 10.981884 1.147041 8.443649 -0.162821 1.312700 -0.000000 -52.555000 11.687666 -3.672707 -3.042553 -3.709237 -33.774759 5.509203 1.098435 -0.227868 5.703127 -2.358650 -17.328537 12.090288 -6.431700 0.000000 -75.834500
2.475889 17.309550 1.012391 0.927344 -48.801720 2.326540 -8.646879 2.807739 9.290716 0.136947 -26.823832 -10.530898 -1.418872 -0.209918 10.848834 1.072054 8.170688 0.285511 1.339599 -0.000000 -53.123200 11.676962 -3.745531 -3.097565 -3.975687 -33.833798 5.692649 1.105248 -0.299764 5.874920 -2.360122 -17.169326 12.051031 -6.336300 -0.000000 -75.826100
2.490331 17.319907 0.968619 1.020880 -49.255751 1.863282 -8.773909 2.722908 8.918033 -0.201647 -25.527666 -9.906604 -1.422745 -0.244873 10.676426 0.994206 7.862607 0.722680 1.355800 0.000000 -53.693600 11.652218 -3.817881 -3.130396 -4.111053 -33.856559 5.726438 1.119799 -0.362759 6.067175 -2.375364 -17.099500 11.925531 -6.256900 -0.000000 -75.705600
2.498662 17.330644 0.927773 1.074529 -49.786186 1.526012 -8.910600 2.653762 8.557114 -0.434478 -24.157389 -9.378924 -1.416224 -0.284260 10.429508 0.919174 7.554761 1.156519 1.368100 0.000000 -54.222800 11.611254 -3.888187 -3.143448 -4.093244 -33.837387 5.623588 1.140553 -0.413442 6.250420 -2.405129 -17.139966 11.754460 -6.213200 0.000000 -75.465799
2.499950 17.342041 0.891797 1.050028 -50.328206 1.346849 -9.033683 2.612664 8.250549 -0.539532 -22.836569 -8.957760 -1.402621 -0.328778 10.085593 0.852201 7.282493 1.584336 1.383100 -0.000000 -54.664900 11.568538 -3.962434 -3.121707 -3.912103 -33.780604 5.404304 1.164992 -0.447828 6.403973 -2.447282 -17.292479 11.574359 -6.215100 0.000000 -75.112799
2.494248 17.353631 0.861950 0.898417 -50.800404 1.338726 -9.117101 2.610733 8.035672 -0.513531 -21.679427 -8.633219 -1.387110 -0.379703 9.645234 0.796506 7.071198 1.992266 1.405000 0.000000 -54.980100 11.544815 -4.050929 -3.048650 -3.581818 -33.705101 5.107398 1.189957 -0.465261 6.521979 -2.497718 -17.540209 11.415033 -6.262600 0.000000 -74.685900
2.483507 17.364904 0.838184 0.655546 -51.132992 1.482620 -9.169837 2.631880 7.904543 -0.380536 -20.791321 -8.388125 -1.371418 -0.431445 9.121174 0.756954 6.954617 2.371252 1.439300 0.000000 -55.138100 11.527225 -4.139970 -2.956904 -3.142526 -33.611431 4.784372 1.211715 -0.472175 6.611094 -2.556063 -17.871864 11.300420 -6.357600 0.000000 -74.230400
2.468450 17.374960 0.820569 0.365078 -51.285588 1.752240 -9.194585 2.666468 7.854827 -0.167807 -20.249147 -8.219411 -1.357308 -0.479197 8.533913 0.736989 6.951551 2.704988 1.488700 -0.000000 -55.124601 11.510842 -4.214570 -2.871516 -2.644913 -33.515954 4.465215 1.228566 -0.472141 6.686538 -2.617487 -18.251350 11.240061 -6.489200 -0.000000 -73.817300
2.449778 17.382955 0.809210 0.066768 -51.249458 2.121053 -9.192933 2.711257 7.883144 0.101590 -20.093720 -8.135259 -1.345176 -0.518669 7.910710 0.738718 7.067080 2.977326 1.553300 -0.000000 -54.944000 11.493954 -4.260399 -2.811217 -2.134365 -33.429677 4.163423 1.239126 -0.465900 6.765205 -2.675643 -18.638034 11.234870 -6.642999 0.000000 -73.510900
